<?xml version="1.0" encoding="UTF-8" standalone="no"?>
<!-- Created with Inkscape (http://www.inkscape.org/) -->

<svg
   xmlns:dc="http://purl.org/dc/elements/1.1/"
   xmlns:cc="http://creativecommons.org/ns#"
   xmlns:rdf="http://www.w3.org/1999/02/22-rdf-syntax-ns#"
   xmlns:svg="http://www.w3.org/2000/svg"
   xmlns="http://www.w3.org/2000/svg"
   xmlns:sodipodi="http://sodipodi.sourceforge.net/DTD/sodipodi-0.dtd"
   xmlns:inkscape="http://www.inkscape.org/namespaces/inkscape"
   id="svg6242"
   version="1.1"
   inkscape:version="0.48.3.1 r9886"
   width="675"
   height="927"
   xml:space="preserve"
   sodipodi:docname="multiple_view_geometry_book.pdf"><metadata
     id="metadata6248"><rdf:RDF><cc:Work
         rdf:about=""><dc:format>image/svg+xml</dc:format><dc:type
           rdf:resource="http://purl.org/dc/dcmitype/StillImage" /><dc:title></dc:title></cc:Work></rdf:RDF></metadata><defs
     id="defs6246" /><sodipodi:namedview
     pagecolor="#ffffff"
     bordercolor="#666666"
     borderopacity="1"
     objecttolerance="10"
     gridtolerance="10"
     guidetolerance="10"
     inkscape:pageopacity="0"
     inkscape:pageshadow="2"
     inkscape:window-width="1689"
     inkscape:window-height="923"
     id="namedview6244"
     showgrid="false"
     inkscape:zoom="1.4401484"
     inkscape:cx="259.5642"
     inkscape:cy="693.9125"
     inkscape:window-x="749"
     inkscape:window-y="521"
     inkscape:window-maximized="0"
     inkscape:current-layer="g6250" /><g
     id="g6250"
     inkscape:groupmode="layer"
     inkscape:label="multiple_view_geometry_book"
     transform="matrix(1.25,0,0,-1.25,-54.9,955.8)"><g
       id="g7234"><g
         transform="translate(445.489,664.725)"
         id="g6260"><path
           id="path6262"
           style="fill:#000000;fill-opacity:1;fill-rule:evenodd;stroke:#000000;stroke-width:0.223;stroke-linecap:butt;stroke-linejoin:miter;stroke-miterlimit:10;stroke-opacity:1;stroke-dasharray:none"
           d="m 0,0 c 0,-0.822 -0.667,-1.489 -1.489,-1.489 -0.822,0 -1.489,0.667 -1.489,1.489 0,0.822 0.667,1.489 1.489,1.489 C -0.667,1.489 0,0.822 0,0 z"
           inkscape:connector-curvature="0" /></g><g
         transform="translate(365.539,665.175)"
         id="g6264"><path
           id="path6266"
           style="fill:#000000;fill-opacity:1;fill-rule:evenodd;stroke:#000000;stroke-width:0.223;stroke-linecap:butt;stroke-linejoin:miter;stroke-miterlimit:10;stroke-opacity:1;stroke-dasharray:none"
           d="m 0,0 c 0,-0.822 -0.667,-1.489 -1.489,-1.489 -0.822,0 -1.489,0.667 -1.489,1.489 0,0.822 0.667,1.489 1.489,1.489 C -0.667,1.489 0,0.822 0,0 z"
           inkscape:connector-curvature="0" /></g><g
         transform="translate(336.925,664.926)"
         id="g6268"><path
           id="path6270"
           style="fill:none;stroke:#000000;stroke-width:0.223;stroke-linecap:butt;stroke-linejoin:miter;stroke-miterlimit:10;stroke-opacity:1;stroke-dasharray:none"
           d="M 0,0 125.069,0 M 8.934,17.867 26.801,0 M 0,8.934 17.867,26.801 M 107.202,0 l 0,17.867 m -17.867,0 35.734,0 M 26.801,0 107.202,0 M -2.739,21.232 89.275,-43.982 117.416,26.145"
           inkscape:connector-curvature="0" /></g><text
         y="-649.73932"
         x="443.11429"
         id="text6272"
         transform="scale(1,-1)"><tspan
           id="tspan6274"
           y="-649.73932"
           x="443.11429"
           style="font-size:10.72019958px;font-variant:normal;font-weight:bold;writing-mode:lr-tb;fill:#000000;fill-opacity:1;fill-rule:nonzero;stroke:none;font-family:Times New Roman;-inkscape-font-specification:Times-Bold">A</tspan><tspan
           id="tspan6276"
           y="-649.28906"
           x="361.37277"
           style="font-size:10.72019958px;font-variant:normal;font-weight:bold;writing-mode:lr-tb;fill:#000000;fill-opacity:1;fill-rule:nonzero;stroke:none;font-family:Times New Roman;-inkscape-font-specification:Times-Bold">B</tspan></text>
<g
         transform="translate(364.204,539.205)"
         id="g6278"><path
           id="path6280"
           style="fill:#000000;fill-opacity:1;fill-rule:evenodd;stroke:#000000;stroke-width:0.223;stroke-linecap:butt;stroke-linejoin:miter;stroke-miterlimit:10;stroke-opacity:1;stroke-dasharray:none"
           d="m 0,0 c 0,-0.822 -0.667,-1.489 -1.489,-1.489 -0.822,0 -1.489,0.667 -1.489,1.489 0,0.822 0.667,1.489 1.489,1.489 C -0.667,1.489 0,0.822 0,0 z"
           inkscape:connector-curvature="0" /></g><g
         transform="translate(445.039,539.655)"
         id="g6282"><path
           id="path6284"
           style="fill:#000000;fill-opacity:1;fill-rule:evenodd;stroke:#000000;stroke-width:0.223;stroke-linecap:butt;stroke-linejoin:miter;stroke-miterlimit:10;stroke-opacity:1;stroke-dasharray:none"
           d="m 0,0 c 0,-0.822 -0.667,-1.489 -1.489,-1.489 -0.822,0 -1.489,0.667 -1.489,1.489 0,0.822 0.667,1.489 1.489,1.489 C -0.667,1.489 0,0.822 0,0 z"
           inkscape:connector-curvature="0" /></g><g
         transform="translate(336.419,539.858)"
         id="g6286"><path
           id="path6288"
           style="fill:none;stroke:#000000;stroke-width:0.223;stroke-linecap:butt;stroke-linejoin:miter;stroke-miterlimit:10;stroke-opacity:1;stroke-dasharray:none"
           d="m 0,0 125.068,0 m -17.866,0 0,17.867 m -17.867,0 35.733,0 M 26.8,0 107.202,0 M 8.933,-17.867 26.8,0 M 0,-8.934 17.867,-26.801 M -2.74,-21.202 137.516,78.852 107.142,-0.209"
           inkscape:connector-curvature="0" /></g><text
         y="-521.54413"
         x="440.88101"
         id="text6290"
         transform="scale(1,-1)"><tspan
           id="tspan6292"
           y="-521.54413"
           x="440.88101"
           style="font-size:10.72019958px;font-variant:normal;font-weight:bold;writing-mode:lr-tb;fill:#000000;fill-opacity:1;fill-rule:nonzero;stroke:none;font-family:Times New Roman;-inkscape-font-specification:Times-Bold">A</tspan><tspan
           id="tspan6294"
           y="-521.99432"
           x="360.92975"
           style="font-size:10.72019958px;font-variant:normal;font-weight:bold;writing-mode:lr-tb;fill:#000000;fill-opacity:1;fill-rule:nonzero;stroke:none;font-family:Times New Roman;-inkscape-font-specification:Times-Bold">B</tspan></text>
<text
         y="-526.45752"
         x="369.85999"
         id="text6296"
         transform="scale(1,-1)"><tspan
           id="tspan6298"
           y="-526.45752"
           x="369.85999"
           style="font-size:6.25339985px;font-variant:normal;font-weight:bold;writing-mode:lr-tb;fill:#000000;fill-opacity:1;fill-rule:nonzero;stroke:none;font-family:Times New Roman;-inkscape-font-specification:Times-Bold">/</tspan></text>
<g
         transform="translate(266.824,539.655)"
         id="g6300"><path
           id="path6302"
           style="fill:#000000;fill-opacity:1;fill-rule:evenodd;stroke:#000000;stroke-width:0.223;stroke-linecap:butt;stroke-linejoin:miter;stroke-miterlimit:10;stroke-opacity:1;stroke-dasharray:none"
           d="m 0,0 c 0,-0.822 -0.667,-1.489 -1.489,-1.489 -0.822,0 -1.489,0.667 -1.489,1.489 0,0.822 0.667,1.489 1.489,1.489 C -0.667,1.489 0,0.822 0,0 z"
           inkscape:connector-curvature="0" /></g><g
         transform="translate(186.049,539.865)"
         id="g6304"><path
           id="path6306"
           style="fill:#000000;fill-opacity:1;fill-rule:evenodd;stroke:#000000;stroke-width:0.223;stroke-linecap:butt;stroke-linejoin:miter;stroke-miterlimit:10;stroke-opacity:1;stroke-dasharray:none"
           d="m 0,0 c 0,-0.822 -0.667,-1.489 -1.489,-1.489 -0.822,0 -1.489,0.667 -1.489,1.489 0,0.822 0.667,1.489 1.489,1.489 C -0.667,1.489 0,0.822 0,0 z"
           inkscape:connector-curvature="0" /></g><g
         transform="translate(157.75,539.858)"
         id="g6308"><path
           id="path6310"
           style="fill:none;stroke:#000000;stroke-width:0.223;stroke-linecap:butt;stroke-linejoin:miter;stroke-miterlimit:10;stroke-opacity:1;stroke-dasharray:none"
           d="M 0,0 125.068,0 M 26.8,0 l 0,17.867 m -17.867,0 35.734,0 M 80.401,-8.934 98.268,-26.801 M 89.334,-17.867 107.201,0 m 0,0 L -6.7,-80.401 M 37.967,26.8 -6.7,-80.401 107.201,0"
           inkscape:connector-curvature="0" /></g><text
         y="-523.77753"
         x="181.8105"
         id="text6312"
         transform="scale(1,-1)"><tspan
           id="tspan6314"
           y="-523.77753"
           x="181.8105"
           style="font-size:10.72019958px;font-variant:normal;font-weight:bold;writing-mode:lr-tb;fill:#000000;fill-opacity:1;fill-rule:nonzero;stroke:none;font-family:Times New Roman;-inkscape-font-specification:Times-Bold">A</tspan><tspan
           id="tspan6316"
           y="-524.6673"
           x="264.4418"
           style="font-size:10.72019958px;font-variant:normal;font-weight:bold;writing-mode:lr-tb;fill:#000000;fill-opacity:1;fill-rule:nonzero;stroke:none;font-family:Times New Roman;-inkscape-font-specification:Times-Bold">B</tspan></text>
<text
         y="-528.2442"
         x="274.7186"
         id="text6318"
         transform="scale(1,-1)"><tspan
           id="tspan6320"
           y="-528.2442"
           x="274.7186"
           style="font-size:6.25339985px;font-variant:normal;font-weight:bold;writing-mode:lr-tb;fill:#000000;fill-opacity:1;fill-rule:nonzero;stroke:none;font-family:Times New Roman;-inkscape-font-specification:Times-Bold">/</tspan></text>
<g
         transform="translate(427.993,620.265)"
         id="g6334"><path
           id="path6336"
           style="fill:#000000;fill-opacity:1;fill-rule:evenodd;stroke:#000000;stroke-width:0.223;stroke-linecap:butt;stroke-linejoin:miter;stroke-miterlimit:10;stroke-opacity:1;stroke-dasharray:none"
           d="m 0,0 c 0,-1.233 -1,-2.233 -2.233,-2.233 -1.233,0 -2.233,1 -2.233,2.233 0,1.233 1,2.233 2.233,2.233 C -1,2.233 0,1.233 0,0 z"
           inkscape:connector-curvature="0" /></g><g
         transform="translate(477.133,620.265)"
         id="g6338"><path
           id="path6340"
           style="fill:#000000;fill-opacity:1;fill-rule:evenodd;stroke:#000000;stroke-width:0.223;stroke-linecap:butt;stroke-linejoin:miter;stroke-miterlimit:10;stroke-opacity:1;stroke-dasharray:none"
           d="m 0,0 c 0,-1.233 -1,-2.233 -2.233,-2.233 -1.233,0 -2.233,1 -2.233,2.233 0,1.233 1,2.233 2.233,2.233 C -1,2.233 0,1.233 0,0 z"
           inkscape:connector-curvature="0" /></g><g
         transform="translate(153.283,459.465)"
         id="g6342"><path
           id="path6344"
           style="fill:#000000;fill-opacity:1;fill-rule:evenodd;stroke:#000000;stroke-width:0.223;stroke-linecap:butt;stroke-linejoin:miter;stroke-miterlimit:10;stroke-opacity:1;stroke-dasharray:none"
           d="m 0,0 c 0,-1.233 -1,-2.233 -2.233,-2.233 -1.233,0 -2.233,1 -2.233,2.233 0,1.233 1,2.233 2.233,2.233 C -1,2.233 0,1.233 0,0 z"
           inkscape:connector-curvature="0" /></g><g
         id="g7216"><g
           id="g6322"
           transform="translate(266.449,664.935)"><path
             inkscape:connector-curvature="0"
             d="m 0,0 c 0,-0.822 -0.667,-1.489 -1.489,-1.489 -0.822,0 -1.489,0.667 -1.489,1.489 0,0.822 0.667,1.489 1.489,1.489 C -0.667,1.489 0,0.822 0,0 z"
             style="fill:#000000;fill-opacity:1;fill-rule:evenodd;stroke:#000000;stroke-width:0.223;stroke-linecap:butt;stroke-linejoin:miter;stroke-miterlimit:10;stroke-opacity:1;stroke-dasharray:none"
             id="path6324" /></g><g
           id="g6326"
           transform="translate(186.049,664.935)"><path
             inkscape:connector-curvature="0"
             d="m 0,0 c 0,-0.822 -0.667,-1.489 -1.489,-1.489 -0.822,0 -1.489,0.667 -1.489,1.489 0,0.822 0.667,1.489 1.489,1.489 C -0.667,1.489 0,0.822 0,0 z"
             style="fill:#000000;fill-opacity:1;fill-rule:evenodd;stroke:#000000;stroke-width:0.223;stroke-linecap:butt;stroke-linejoin:miter;stroke-miterlimit:10;stroke-opacity:1;stroke-dasharray:none"
             id="path6328" /></g><g
           id="g6330"
           transform="translate(204.643,709.605)"><path
             inkscape:connector-curvature="0"
             d="m 0,0 c 0,-1.233 -1,-2.233 -2.233,-2.233 -1.233,0 -2.233,1 -2.233,2.233 0,1.233 1,2.233 2.233,2.233 C -1,2.233 0,1.233 0,0 z"
             style="fill:#000000;fill-opacity:1;fill-rule:evenodd;stroke:#000000;stroke-width:0.223;stroke-linecap:butt;stroke-linejoin:miter;stroke-miterlimit:10;stroke-opacity:1;stroke-dasharray:none"
             id="path6332" /></g><g
           id="g6346"
           transform="translate(157.75,664.926)"><path
             inkscape:connector-curvature="0"
             d="M 0,0 125.068,0 M 26.8,0 l 0,17.867 m -17.867,0 35.734,0 m 44.667,0 L 107.201,0 m -26.8,8.934 17.867,17.867 M 26.8,0 44.667,44.668 107.201,0"
             style="fill:none;stroke:#000000;stroke-width:0.223;stroke-linecap:butt;stroke-linejoin:miter;stroke-miterlimit:10;stroke-opacity:1;stroke-dasharray:none"
             id="path6348" /></g></g><text
         y="-646.16589"
         x="182.7039"
         id="text6350"
         transform="scale(1,-1)"><tspan
           id="tspan6352"
           y="-646.16589"
           x="182.7039"
           style="font-size:10.72019958px;font-variant:normal;font-weight:bold;writing-mode:lr-tb;fill:#000000;fill-opacity:1;fill-rule:nonzero;stroke:none;font-family:Times New Roman;-inkscape-font-specification:Times-Bold">A</tspan><tspan
           id="tspan6354"
           y="-646.61615"
           x="263.99518"
           style="font-size:10.72019958px;font-variant:normal;font-weight:bold;writing-mode:lr-tb;fill:#000000;fill-opacity:1;fill-rule:nonzero;stroke:none;font-family:Times New Roman;-inkscape-font-specification:Times-Bold">B</tspan><tspan
           id="tspan6356"
           sodipodi:role="line"
           y="-620.26587"
           x="218.0484 221.61823 226.97833 390.02185 393.59167 399.55209"
           style="font-size:10.72019958px;font-variant:normal;font-weight:bold;writing-mode:lr-tb;fill:#000000;fill-opacity:1;fill-rule:nonzero;stroke:none;font-family:Times New Roman;-inkscape-font-specification:Times-Bold">(a)(b)</tspan><tspan
           id="tspan6358"
           sodipodi:role="line"
           y="-459.46289"
           x="211.34828 214.91811 219.67787 390.02185 393.59167 399.55209"
           style="font-size:10.72019958px;font-variant:normal;font-weight:bold;writing-mode:lr-tb;fill:#000000;fill-opacity:1;fill-rule:nonzero;stroke:none;font-family:Times New Roman;-inkscape-font-specification:Times-Bold">(c)(d)</tspan></text>
</g></g></svg>