<?xml version="1.0" encoding="UTF-8" standalone="no"?>
<!-- Created with Inkscape (http://www.inkscape.org/) -->

<svg
   xmlns:dc="http://purl.org/dc/elements/1.1/"
   xmlns:cc="http://creativecommons.org/ns#"
   xmlns:rdf="http://www.w3.org/1999/02/22-rdf-syntax-ns#"
   xmlns:svg="http://www.w3.org/2000/svg"
   xmlns="http://www.w3.org/2000/svg"
   xmlns:sodipodi="http://sodipodi.sourceforge.net/DTD/sodipodi-0.dtd"
   xmlns:inkscape="http://www.inkscape.org/namespaces/inkscape"
   id="svg2"
   version="1.1"
   inkscape:version="0.48.3.1 r9886"
   width="183"
   height="116"
   sodipodi:docname="universite-bourgogne.pdf">
  <metadata
     id="metadata8">
    <rdf:RDF>
      <cc:Work
         rdf:about="">
        <dc:format>image/svg+xml</dc:format>
        <dc:type
           rdf:resource="http://purl.org/dc/dcmitype/StillImage" />
        <dc:title></dc:title>
      </cc:Work>
    </rdf:RDF>
  </metadata>
  <defs
     id="defs6" />
  <sodipodi:namedview
     pagecolor="#ffffff"
     bordercolor="#666666"
     borderopacity="1"
     objecttolerance="10"
     gridtolerance="10"
     guidetolerance="10"
     inkscape:pageopacity="0"
     inkscape:pageshadow="2"
     inkscape:window-width="1587"
     inkscape:window-height="1220"
     id="namedview4"
     showgrid="false"
     inkscape:zoom="4.0689655"
     inkscape:cx="91.733063"
     inkscape:cy="81.655111"
     inkscape:window-x="173"
     inkscape:window-y="283"
     inkscape:window-maximized="0"
     inkscape:current-layer="svg2" />
  <g
     id="g3767">
    <path
       inkscape:connector-curvature="0"
       id="path2991"
       d="m 5.4237288,104.59322 0,-4.999998 10.2397812,0 10.239781,0 -2.854357,-2.64671 c -5.753135,-5.33461 -6.579007,-8.96837 -6.603244,-29.05364 l -0.02196,-18.20034 -5.999999,-0.67882 -6.0000002,-0.67883 0,-8.22261 0,-8.22262 8.2500002,-0.64222 c 4.537499,-0.35322 12.854355,-0.64492 18.4819,-0.64822 l 10.231902,-0.006 0.268098,23.64171 c 0.241528,21.29862 0.442394,23.75156 2.026728,24.75 2.203886,1.38889 6.100221,-0.61865 9.144212,-4.71144 1.921454,-2.58349 2.13905,-4.51048 2.597159,-23 l 0.5,-20.18027 12.5,0 12.5,0 0.267204,24.62844 0.267204,24.62844 3.107796,0.62156 c 1.709288,0.34186 4.176546,0.62156 5.482796,0.62156 l 2.375,0 0,-38 0,-37.9999996 23.81851,0 c 18.90216,0 24.92836,0.32959 29.19551,1.5968 12.23218,3.6325696 17.98599,10.9061496 17.98599,22.7366996 0,6.21372 -3.02202,12.80089 -7.51884,16.38898 l -3.29539,2.62946 3.77441,2.73417 c 5.2649,3.81388 8.42113,10.72252 8.39095,18.36694 -0.0484,12.26043 -7.40432,22.24591 -19.7373,26.79288 l -6.11383,2.25407 18.75,0.27207 18.75,0.27206 0,4.977938 0,4.97793 -85.50001,0 -85.4999992,0 0,-5 z m 54.1218842,0.0756 c -0.757964,-0.46862 -1.068906,-1.35234 -0.690983,-1.96384 0.39192,-0.63414 0.01733,-1.1118 -0.871885,-1.1118 -1.850396,0 -2.049682,2.10934 -0.359017,3.8 0.933333,0.93333 0.920218,1.2 -0.05902,1.2 -0.692459,0 -0.954213,0.49318 -0.581676,1.09596 0.459142,0.74291 1.202973,0.57019 2.309017,-0.53616 1.357311,-1.35769 1.399947,-1.7754 0.253561,-2.48416 z m 54.337547,1.1695 c 0.79015,-2.05911 -1.83015,-4.7006 -3.88189,-3.91327 -1.87052,0.71779 -2.12389,5.31088 -0.32754,5.93749 1.80739,0.63045 3.50376,-0.1853 4.20943,-2.02422 z m -3.95943,-0.2451 c -0.39915,-0.64585 -0.27574,-1.62426 0.27426,-2.17426 0.66667,-0.66667 1.24192,-0.60858 1.72574,0.17426 0.39915,0.64585 0.27574,1.62426 -0.27426,2.17426 -0.66667,0.66667 -1.24192,0.60858 -1.72574,-0.17426 z m -88.649834,-1.25 c -0.139456,-3.02493 -0.178682,-3.05956 -0.566422,-0.5 -0.520528,3.43611 -2.283746,3.62913 -2.283746,0.25 0,-1.375 -0.45,-2.5 -1,-2.5 -1.112285,0 -1.38019,4.28648 -0.333333,5.33333 0.366666,0.36667 1.491666,0.66667 2.5,0.66667 1.432444,0 1.80057,-0.71067 1.683501,-3.25 z m 8.134519,-0.125 c -0.01045,-2.13263 -0.288313,-2.69415 -0.875,-1.76824 -0.599292,0.94581 -1.066872,1.02153 -1.543704,0.25 -1.258852,-2.03686 -2.565983,-1.13611 -2.565983,1.76824 0,2.4 0.413043,2.875 2.5,2.875 2.1366,0 2.497774,-0.45425 2.484687,-3.125 z m 5.015313,0.93402 c 0,-1.34254 -0.45,-2.7191 -1,-3.05902 -0.583423,-0.36058 -1,0.65628 -1,2.44098 0,1.68246 0.45,3.05902 1,3.05902 0.55,0 1,-1.09844 1,-2.44098 z m 5.964816,0.50672 c 1.543185,-2.88347 1.262654,-4.94942 -0.378353,-2.78635 -1.244389,1.64027 -1.400107,1.64863 -1.991735,0.10687 -0.974612,-2.5398 -1.782396,-0.98217 -1.034988,1.99574 0.779377,3.10528 1.980073,3.34638 3.405076,0.68374 z m 6.535184,1.16895 c -0.55,-0.40408 -1,-1.40969 -1,-2.23469 0,-0.825 0.45,-1.83061 1,-2.23469 0.55,-0.40408 -0.0125,-0.74158 -1.25,-0.75 -1.836736,-0.0125 -2.25,0.53571 -2.25,2.98469 0,2.44898 0.413264,2.99719 2.25,2.98469 1.2375,-0.008 1.8,-0.34592 1.25,-0.75 z m 6.280937,-2.23469 c 0.0662,-2.32815 -0.347624,-3 -1.84782,-3 -1.481241,0 -1.933117,0.70127 -1.933117,3 0,2.25098 0.461353,3 1.84782,3 1.367512,0 1.869991,-0.7798 1.933117,-3 z m 11.219063,0.55902 c 0,-1.34254 -0.45,-2.7191 -1,-3.05902 -0.583423,-0.36058 -1,0.65628 -1,2.44098 0,1.68246 0.45,3.05902 1,3.05902 0.55,0 1,-1.09844 1,-2.44098 z m 5,1.02277 c 0,-0.78002 0.273145,-2.13002 0.606989,-3 0.440857,-1.14886 0.001,-1.58179 -1.606989,-1.58179 -1.608015,0 -2.047846,0.43293 -1.606989,1.58179 0.333844,0.86998 0.606989,2.21998 0.606989,3 0,0.78001 0.45,1.41821 1,1.41821 0.55,0 1,-0.6382 1,-1.41821 z m 6,0.41821 c -1.178175,-0.7614 -1.205542,-0.97266 -0.127555,-0.98469 1.106462,-0.0123 1.131182,-0.30601 0.127555,-1.51531 -0.821184,-0.98947 -0.873541,-1.5 -0.15383,-1.5 0.600083,0 0.827631,-0.68649 0.505662,-1.52552 -0.924561,-2.409368 -3.351832,0.23235 -3.351832,3.64796 0,2.32201 0.434395,2.8746 2.25,2.86225 1.819438,-0.0124 1.962959,-0.20082 0.75,-0.98469 z m 12.5,-2 c 0,-1.83124 -0.60188,-2.58548 -2.25,-2.81955 -1.923354,-0.27316 -2.25,0.13617 -2.25,2.81955 0,2.68338 0.326646,3.09271 2.25,2.81955 1.64812,-0.23407 2.25,-0.98831 2.25,-2.81955 z m -2.5,0.44098 c 0,-0.85746 0.45734,-1.27636 1.016312,-0.9309 0.558971,0.34546 0.757414,1.04702 0.440983,1.55902 -0.85724,1.38704 -1.457295,1.12841 -1.457295,-0.62812 z m 8,1.55902 c -1.178175,-0.7614 -1.205542,-0.97266 -0.127555,-0.98469 1.064095,-0.0119 1.110886,-0.33047 0.208262,-1.41806 -0.893735,-1.07689 -0.864103,-1.53741 0.127555,-1.98237 0.710456,-0.31879 0.391738,-0.4712 -0.708262,-0.3387 -1.359937,0.16382 -2.101265,1.11827 -2.316422,2.98237 -0.264783,2.29405 0.06162,2.73895 2,2.72614 1.86243,-0.0123 2.022439,-0.2053 0.816422,-0.98469 z m 12.190172,0.4765 c 1.2601,-1.2601 -0.51588,-5.4765 -2.30675,-5.4765 -1.42602,0 -1.88342,0.72856 -1.88342,3 0,2.24242 0.46296,3 1.83333,3 1.00833,0 2.06891,-0.23558 2.35684,-0.5235 z m 15.62625,-2.7265 c 0.17403,-1.5125 -0.16347,-2.75 -0.75,-2.75 -0.58653,0 -1.06642,1.125 -1.06642,2.5 0,3.37913 -1.76322,3.18611 -2.28375,-0.25 -0.37968,-2.50639 -0.42986,-2.45594 -0.56642,0.56955 -0.13113,2.90516 0.13105,3.27966 2.10017,3 1.61101,-0.2288 2.33986,-1.10054 2.56642,-3.06955 z m 6.72829,0.375 c -0.0634,-3.72477 -3.9172,-3.72477 -4.34907,0 -0.25215,2.17474 0.0986,2.625 2.04471,2.625 1.8802,0 2.34015,-0.52395 2.30436,-2.625 z m 7.43998,1.125 c -0.0129,-1.46777 -0.16535,-1.51276 -0.94563,-0.27896 -0.51167,0.80907 -1.23537,1.16598 -1.60823,0.79313 -1.01816,-1.01817 0.40046,-3.98648 1.56211,-3.26854 0.55388,0.34232 1.00706,0.14585 1.00706,-0.43661 0,-1.6323 -3.98829,-1.25312 -4.63837,0.44098 -0.89308,2.32733 0.36561,4.5 2.60699,4.5 1.27381,0 2.02567,-0.65263 2.01607,-1.75 z m 7.83545,-1.00447 c 0.40701,-2.8663 -2.41029,-4.08396 -4.53443,-1.95982 -2.12414,2.12414 -0.90648,4.94144 1.95982,4.53443 1.45196,-0.20618 2.36843,-1.12265 2.57461,-2.57461 z m -3.82014,0.3378 c 0,-0.87083 0.7125,-1.58333 1.58333,-1.58333 1.76593,0 1.45839,2.15276 -0.39583,2.77083 -0.65313,0.21771 -1.1875,-0.31666 -1.1875,-1.1875 z m 12,0.91667 c 0,-0.825 -0.45,-1.5 -1,-1.5 -0.55,0 -1,0.45 -1,1 0,0.55 -0.483,1 -1.07332,1 -0.59033,0 -0.90111,-0.7875 -0.69061,-1.75 0.21049,-0.9625 0.91848,-1.6375 1.57332,-1.5 0.65484,0.1375 1.19061,-0.2 1.19061,-0.75 0,-1.51354 -2.59161,-1.19701 -3.98943,0.48727 -0.67888,0.81799 -0.9731,2.16799 -0.65383,3 0.76805,2.00149 5.64326,2.01249 5.64326,0.0127 z m 6.98469,-1.875 c -0.0104,-2.13263 -0.28832,-2.69415 -0.875,-1.76824 -0.5993,0.94581 -1.06688,1.02153 -1.54371,0.25 -1.25885,-2.03686 -2.56598,-1.13611 -2.56598,1.76824 0,2.4 0.41304,2.875 2.5,2.875 2.1366,0 2.49777,-0.45425 2.48469,-3.125 z m 6.01531,2.375 c -1.17818,-0.7614 -1.20554,-0.97266 -0.12756,-0.98469 1.0641,-0.0119 1.11089,-0.33047 0.20827,-1.41806 -0.89398,-1.07718 -0.86437,-1.52306 0.12755,-1.92106 0.71046,-0.28506 0.27924,-0.55382 -0.95826,-0.59724 -1.85088,-0.065 -2.25,0.45321 -2.25,2.92105 0,2.44898 0.41326,2.99719 2.25,2.98469 1.81944,-0.0124 1.96296,-0.20082 0.75,-0.98469 z M 58.236559,95.301872 l 0.31283,-3.79136 -4.81283,3.65206 c -2.647057,2.00863 -5.02923,3.85614 -5.293719,4.10557 -0.264488,0.24944 1.760512,0.31212 4.5,0.1393 4.979777,-0.31415 4.980958,-0.31507 5.293719,-4.10557 z m 73.973871,3.32336 c 10.72922,-1.23364 18.83947,-4.85586 24.55593,-10.96723 5.07612,-5.42678 6.98525,-10.36605 6.98241,-18.06478 -0.003,-7.99955 -4.16786,-15.28779 -10.66855,-18.66905 l -2.8435,-1.47902 4.22934,-3.62016 c 11.17478,-9.56519 10.54382,-25.99597 -1.30229,-33.91294 -6.96258,-4.6532196 -12.38708,-5.3943796 -37.24575,-5.0890196 l -21.994292,0.27019 -0.260068,45.7208996 -0.260068,45.72091 13.260068,0.31072 c 7.29304,0.1709 14.16007,0.40558 15.26007,0.52151 1.1,0.11593 5.72902,-0.21798 10.2867,-0.74203 z m -12.0367,-19.67116 c -1.49807,-0.43444 -1.75,-1.79258 -1.75,-9.43418 l 0,-8.92667 4.25,0.006 c 9.14115,0.012 14.75,3.30881 14.75,8.66987 0,3.52151 -1.99913,7.00312 -4.73762,8.25086 -2.96141,1.34931 -10.01695,2.15823 -12.51238,1.43455 z m 12.91916,-2.87973 c 2.86641,-1.87815 3.93813,-5.85285 2.45552,-9.10683 -1.37749,-3.02326 -6.66749,-5.37429 -12.09256,-5.37429 l -4.03212,0 0,7.91666 c 0,5.36979 0.40214,8.09575 1.25,8.47332 2.06207,0.91826 9.95623,-0.29509 12.41916,-1.90886 z m -14.66916,-41.98112 0,-8.5 4.85078,0 c 5.98884,0 10.87673,1.62233 12.17033,4.03944 1.7916,3.34764 1.08197,7.01132 -1.94419,10.03748 -2.58942,2.58942 -3.61673,2.92308 -9,2.92308 l -6.07692,0 0,-8.5 z m 12.44719,6.52008 c 3.17892,-1.20863 5.02534,-5.00125 4.14413,-8.51224 -0.79735,-3.17692 -5.68921,-5.50784 -11.5592,-5.50784 l -4.03212,0 0,7.5 0,7.5 4.4349,0 c 2.4392,0 5.59473,-0.44097 7.01229,-0.97992 z"
       style="fill:#00006d;fill-opacity:1" />
    <rect
       y="99.987221"
       x="5.8225865"
       height="9.0896797"
       width="170.31514"
       id="rect2993"
       style="fill:#00006d;fill-opacity:1;fill-rule:evenodd;stroke:#00006d;stroke-width:0.96465373px;stroke-linecap:butt;stroke-linejoin:miter;stroke-opacity:1" />
    <text
       sodipodi:linespacing="125%"
       id="text3763"
       y="108.19556"
       x="16.60541"
       style="font-size:16.18759537px;font-style:normal;font-weight:normal;line-height:125%;letter-spacing:0px;word-spacing:0px;fill:#000000;fill-opacity:1;stroke:none;font-family:Sans"
       xml:space="preserve"><tspan
         style="font-size:9.89241982px;fill:#ffffff;fill-opacity:1"
         y="108.19556"
         x="16.60541"
         id="tspan3765"
         sodipodi:role="line">UNIVERSITÉ DE BOURGOGNE</tspan></text>
  </g>
</svg>
